<svg width="220" height="67" viewBox="0 0 220 67" fill="none" xmlns="http://www.w3.org/2000/svg">
<g clip-path="url(#clip0_408_216)">
<path d="M0 33.5C0 21.7739 0 15.9109 2.3001 11.4321C4.32333 7.49243 7.5517 4.2894 11.5225 2.28205C16.0367 0 21.9461 0 33.765 0C45.5838 0 51.4933 0 56.0075 2.28205C59.9783 4.2894 63.2066 7.49243 65.2299 11.4321C67.53 15.9109 67.53 21.7739 67.53 33.5C67.53 45.2261 67.53 51.0892 65.2299 55.5679C63.2066 59.5076 59.9783 62.7106 56.0075 64.7179C51.4933 67 45.5838 67 33.765 67C21.9461 67 16.0367 67 11.5225 64.7179C7.5517 62.7106 4.32333 59.5076 2.3001 55.5679C0 51.0892 0 45.2261 0 33.5Z" fill="#14AFEB"/>
<path d="M35.1724 21.6411C35.5556 25.5268 35.7471 27.4697 36.7736 28.8945C37.2134 29.505 37.7559 30.0359 38.3772 30.4639C39.8271 31.4628 41.7878 31.6264 45.7089 31.9535L47.3668 32.0917V34.9087L45.7089 35.0469C41.7878 35.374 39.8271 35.5376 38.3772 36.5365C37.7559 36.9645 37.2134 37.4954 36.7736 38.1059C35.7471 39.5307 35.5556 41.4736 35.1724 45.3593H32.3581C31.9748 41.4736 31.7834 39.5307 30.7569 38.1059C30.317 37.4954 29.7745 36.9645 29.1533 36.5365C27.7034 35.5376 25.7427 35.374 21.8215 35.0469L20.1636 34.9087V32.0917L21.8215 31.9535C25.7427 31.6264 27.7034 31.4628 29.1533 30.4639C29.7745 30.0359 30.317 29.505 30.7569 28.8945C31.7834 27.4697 31.9748 25.5268 32.3581 21.6411H35.1724Z" fill="white"/>
<path fill-rule="evenodd" clip-rule="evenodd" d="M33.7651 7.32812C55.4881 7.32812 60.144 11.9475 60.144 33.5C60.144 55.0525 55.4881 59.6719 33.7651 59.6719C12.0421 59.6719 7.38623 55.0525 7.38623 33.5C7.38623 11.9475 12.0421 7.32812 33.7651 7.32812ZM51.0054 16.373C44.6167 10.0346 31.7141 12.5591 22.1865 22.0119C12.6589 31.4647 10.1144 44.2664 16.5031 50.605C22.8918 56.9435 35.7944 54.419 45.322 44.9662C54.8496 35.5133 57.3942 22.7116 51.0054 16.373Z" fill="white"/>
<path fill-rule="evenodd" clip-rule="evenodd" d="M169.517 24.3535C178.688 24.3535 184.862 30.8131 184.862 40.7419C184.862 50.6707 178.688 57.1303 169.517 57.1303C165.321 57.1303 162.459 55.2764 160.601 52.4054V66.1021H152.733V25.4263H160.601V29.3775C162.519 26.2075 165.501 24.3535 169.517 24.3535ZM168.857 30.3345C163.343 30.3346 159.926 33.9235 159.926 40.7419C159.926 47.68 163.942 51.3285 168.857 51.3286C173.952 51.3286 177.07 47.6801 177.07 40.7419C177.07 33.9234 173.952 30.3345 168.857 30.3345Z" fill="white"/>
<path fill-rule="evenodd" clip-rule="evenodd" d="M134.529 24.3535C144.076 24.3536 149.394 30.3995 149.454 40.815V43.3891H126.674C127.278 48.5369 129.755 50.8113 134.831 50.8113C138.698 50.8113 140.572 49.4346 141.599 46.2022L149.213 48.1776C146.795 54.4628 142.505 57.1567 134.831 57.1567C124.74 57.1567 118.636 50.6915 118.636 40.7548C118.637 30.8182 124.801 24.3535 134.529 24.3535ZM134.348 30.4594C129.393 30.4594 127.097 33.093 126.613 38.1211H141.599C141.176 33.3324 139.182 30.4594 134.348 30.4594Z" fill="white"/>
<path d="M219.901 32.3706H213.453C210.231 32.3706 207.836 33.9181 207.836 38.1638V56.3223H200.886V35.6852C200.886 30.0194 205.466 25.4264 211.115 25.4263H219.908L219.901 32.3706Z" fill="white"/>
<path d="M91.7483 30.5489L110.576 10.3369H121.064L99.8827 33.1073L121.259 56.2616H110.576L91.7483 35.9215V56.2616H83.8848V10.3369H91.7483V30.5489Z" fill="white"/>
<path d="M196.512 56.2617H188.643V10.4697H196.512V56.2617Z" fill="white"/>
</g>
<defs>
<clipPath id="clip0_408_216">
<rect width="220" height="67" fill="white"/>
</clipPath>
</defs>
</svg>
