<svg width="629" height="57" viewBox="0 0 629 57" fill="none" xmlns="http://www.w3.org/2000/svg">
<path d="M0 12C0 5.37258 5.37258 0 12 0H617C623.627 0 629 5.37258 629 12V45C629 51.6274 623.627 57 617 57H12C5.37258 57 0 51.6274 0 45V12Z" fill="#9194B1" fill-opacity="0.2"/>
<path d="M12 0.25H617C623.489 0.250005 628.75 5.51066 628.75 12V45C628.75 51.4893 623.489 56.75 617 56.75H12C5.51065 56.75 0.25 51.4893 0.25 45V12C0.25 5.51065 5.51065 0.25 12 0.25Z" stroke="white" stroke-opacity="0.6" stroke-width="0.5"/>
</svg>
