<svg width="370" height="128" viewBox="0 0 370 128" fill="none" xmlns="http://www.w3.org/2000/svg">
<g clip-path="url(#clip0_0_1)">
<path d="M104 0H24C10.7452 0 0 10.7452 0 24V104C0 117.255 10.7452 128 24 128H104C117.255 128 128 117.255 128 104V24C128 10.7452 117.255 0 104 0Z" fill="url(#paint0_linear_0_1)"/>
<path d="M63.9894 103.996L31.3922 41.5353L26.9424 49.4097L22.4614 40.777L31.6726 24.4619L63.9894 86.3823L96.3064 24.4619L105.538 40.803L101.042 49.4097L96.592 41.5353L63.9894 103.996Z" fill="white"/>
<path d="M43.5322 24.4619L63.9899 63.6368L83.9025 24.4619H43.5322Z" fill="white"/>
</g>
<path d="M166.818 40.4545L178.932 77.0909H179.409L191.5 40.4545H200.773L184.364 87H173.955L157.568 40.4545H166.818ZM218.244 87.6818C214.744 87.6818 211.722 86.9545 209.176 85.5C206.646 84.0303 204.699 81.9545 203.335 79.2727C201.972 76.5758 201.29 73.4015 201.29 69.75C201.29 66.1591 201.972 63.0076 203.335 60.2955C204.714 57.5682 206.638 55.447 209.108 53.9318C211.578 52.4015 214.479 51.6364 217.812 51.6364C219.964 51.6364 221.994 51.9848 223.903 52.6818C225.828 53.3636 227.525 54.4242 228.994 55.8636C230.479 57.303 231.646 59.1364 232.494 61.3636C233.343 63.5758 233.767 66.2121 233.767 69.2727V71.7955H205.153V66.25H225.881C225.866 64.6742 225.525 63.2727 224.858 62.0455C224.191 60.803 223.259 59.8258 222.062 59.1136C220.881 58.4015 219.502 58.0455 217.926 58.0455C216.244 58.0455 214.767 58.4545 213.494 59.2727C212.222 60.0758 211.229 61.1364 210.517 62.4545C209.82 63.7576 209.464 65.1894 209.449 66.75V71.5909C209.449 73.6212 209.82 75.3636 210.562 76.8182C211.305 78.2576 212.343 79.3636 213.676 80.1364C215.009 80.8939 216.57 81.2727 218.358 81.2727C219.555 81.2727 220.638 81.1061 221.608 80.7727C222.578 80.4242 223.419 79.9167 224.131 79.25C224.843 78.5833 225.381 77.7576 225.744 76.7727L233.426 77.6364C232.941 79.6667 232.017 81.4394 230.653 82.9545C229.305 84.4545 227.578 85.6212 225.472 86.4545C223.366 87.2727 220.956 87.6818 218.244 87.6818ZM240.727 87V52.0909H248.705V57.9091H249.068C249.705 55.8939 250.795 54.3409 252.341 53.25C253.902 52.1439 255.682 51.5909 257.682 51.5909C258.136 51.5909 258.644 51.6136 259.205 51.6591C259.78 51.6894 260.258 51.7424 260.636 51.8182V59.3864C260.288 59.2652 259.735 59.1591 258.977 59.0682C258.235 58.9621 257.515 58.9091 256.818 58.9091C255.318 58.9091 253.97 59.2348 252.773 59.8864C251.591 60.5227 250.659 61.4091 249.977 62.5455C249.295 63.6818 248.955 64.9924 248.955 66.4773V87H240.727ZM275.523 87.7045C273.311 87.7045 271.318 87.3106 269.545 86.5227C267.788 85.7197 266.394 84.5379 265.364 82.9773C264.348 81.4167 263.841 79.4924 263.841 77.2045C263.841 75.2348 264.205 73.6061 264.932 72.3182C265.659 71.0303 266.652 70 267.909 69.2273C269.167 68.4545 270.583 67.8712 272.159 67.4773C273.75 67.0682 275.394 66.7727 277.091 66.5909C279.136 66.3788 280.795 66.1894 282.068 66.0227C283.341 65.8409 284.265 65.5682 284.841 65.2045C285.432 64.8258 285.727 64.2424 285.727 63.4545V63.3182C285.727 61.6061 285.22 60.2803 284.205 59.3409C283.189 58.4015 281.727 57.9318 279.818 57.9318C277.803 57.9318 276.205 58.3712 275.023 59.25C273.856 60.1288 273.068 61.1667 272.659 62.3636L264.977 61.2727C265.583 59.1515 266.583 57.3788 267.977 55.9545C269.371 54.5151 271.076 53.4394 273.091 52.7273C275.106 52 277.333 51.6364 279.773 51.6364C281.455 51.6364 283.129 51.8333 284.795 52.2273C286.462 52.6212 287.985 53.2727 289.364 54.1818C290.742 55.0758 291.848 56.2955 292.682 57.8409C293.53 59.3864 293.955 61.3182 293.955 63.6364V87H286.045V82.2045H285.773C285.273 83.1742 284.568 84.0833 283.659 84.9318C282.765 85.7652 281.636 86.4394 280.273 86.9545C278.924 87.4545 277.341 87.7045 275.523 87.7045ZM277.659 81.6591C279.311 81.6591 280.742 81.3333 281.955 80.6818C283.167 80.0152 284.098 79.1364 284.75 78.0455C285.417 76.9545 285.75 75.7652 285.75 74.4773V70.3636C285.492 70.5758 285.053 70.7727 284.432 70.9545C283.826 71.1364 283.144 71.2955 282.386 71.4318C281.629 71.5682 280.879 71.6894 280.136 71.7955C279.394 71.9015 278.75 71.9924 278.205 72.0682C276.977 72.2348 275.879 72.5076 274.909 72.8864C273.939 73.2652 273.174 73.7955 272.614 74.4773C272.053 75.1439 271.773 76.0076 271.773 77.0682C271.773 78.5833 272.326 79.7273 273.432 80.5C274.538 81.2727 275.947 81.6591 277.659 81.6591ZM310.455 66.5455V87H302.227V52.0909H310.091V58.0227H310.5C311.303 56.0682 312.583 54.5152 314.341 53.3636C316.114 52.2121 318.303 51.6364 320.909 51.6364C323.318 51.6364 325.417 52.1515 327.205 53.1818C329.008 54.2121 330.402 55.7045 331.386 57.6591C332.386 59.6136 332.879 61.9848 332.864 64.7727V87H324.636V66.0455C324.636 63.7121 324.03 61.8864 322.818 60.5682C321.621 59.25 319.962 58.5909 317.841 58.5909C316.402 58.5909 315.121 58.9091 314 59.5455C312.894 60.1667 312.023 61.0682 311.386 62.25C310.765 63.4318 310.455 64.8636 310.455 66.5455ZM351.273 87.7045C349.061 87.7045 347.068 87.3106 345.295 86.5227C343.538 85.7197 342.144 84.5379 341.114 82.9773C340.098 81.4167 339.591 79.4924 339.591 77.2045C339.591 75.2348 339.955 73.6061 340.682 72.3182C341.409 71.0303 342.402 70 343.659 69.2273C344.917 68.4545 346.333 67.8712 347.909 67.4773C349.5 67.0682 351.144 66.7727 352.841 66.5909C354.886 66.3788 356.545 66.1894 357.818 66.0227C359.091 65.8409 360.015 65.5682 360.591 65.2045C361.182 64.8258 361.477 64.2424 361.477 63.4545V63.3182C361.477 61.6061 360.97 60.2803 359.955 59.3409C358.939 58.4015 357.477 57.9318 355.568 57.9318C353.553 57.9318 351.955 58.3712 350.773 59.25C349.606 60.1288 348.818 61.1667 348.409 62.3636L340.727 61.2727C341.333 59.1515 342.333 57.3788 343.727 55.9545C345.121 54.5151 346.826 53.4394 348.841 52.7273C350.856 52 353.083 51.6364 355.523 51.6364C357.205 51.6364 358.879 51.8333 360.545 52.2273C362.212 52.6212 363.735 53.2727 365.114 54.1818C366.492 55.0758 367.598 56.2955 368.432 57.8409C369.28 59.3864 369.705 61.3182 369.705 63.6364V87H361.795V82.2045H361.523C361.023 83.1742 360.318 84.0833 359.409 84.9318C358.515 85.7652 357.386 86.4394 356.023 86.9545C354.674 87.4545 353.091 87.7045 351.273 87.7045ZM353.409 81.6591C355.061 81.6591 356.492 81.3333 357.705 80.6818C358.917 80.0152 359.848 79.1364 360.5 78.0455C361.167 76.9545 361.5 75.7652 361.5 74.4773V70.3636C361.242 70.5758 360.803 70.7727 360.182 70.9545C359.576 71.1364 358.894 71.2955 358.136 71.4318C357.379 71.5682 356.629 71.6894 355.886 71.7955C355.144 71.9015 354.5 71.9924 353.955 72.0682C352.727 72.2348 351.629 72.5076 350.659 72.8864C349.689 73.2652 348.924 73.7955 348.364 74.4773C347.803 75.1439 347.523 76.0076 347.523 77.0682C347.523 78.5833 348.076 79.7273 349.182 80.5C350.288 81.2727 351.697 81.6591 353.409 81.6591Z" fill="#5B6F8D"/>
<defs>
<linearGradient id="paint0_linear_0_1" x1="0" y1="0" x2="128" y2="128" gradientUnits="userSpaceOnUse">
<stop stop-color="#763EF0"/>
<stop offset="1" stop-color="#9F7AEA"/>
</linearGradient>
<clipPath id="clip0_0_1">
<rect width="128" height="128" fill="white"/>
</clipPath>
</defs>
</svg>

