<svg width="2331" height="806" viewBox="0 0 2331 806" fill="none" xmlns="http://www.w3.org/2000/svg">
<g clip-path="url(#clip0_0_1)">
<path d="M654.875 0H151.125C67.661 0 0 67.661 0 151.125V654.875C0 738.339 67.661 806 151.125 806H654.875C738.339 806 806 738.339 806 654.875V151.125C806 67.661 738.339 0 654.875 0Z" fill="url(#paint0_linear_0_1)"/>
<path d="M402.934 654.847L197.674 261.54L169.654 311.125L141.438 256.765L199.439 154.031L402.934 543.936L606.431 154.031L664.563 256.929L636.249 311.125L608.229 261.54L402.934 654.847Z" fill="white"/>
<path d="M274.118 154.031L402.937 400.711L528.324 154.031H274.118Z" fill="white"/>
</g>
<path d="M1046.84 264.091L1117.15 485.114H1119.85L1190.31 264.091H1258.49L1158.2 555H1078.94L978.517 264.091H1046.84ZM1367.19 559.261C1344.75 559.261 1325.43 554.716 1309.23 545.625C1293.14 536.439 1280.73 523.466 1272.02 506.705C1263.31 489.848 1258.95 469.915 1258.95 446.903C1258.95 424.46 1263.31 404.763 1272.02 387.812C1280.73 370.862 1292.99 357.652 1308.81 348.182C1324.72 338.712 1343.37 333.977 1364.77 333.977C1379.17 333.977 1392.57 336.297 1404.97 340.938C1417.47 345.483 1428.36 352.348 1437.64 361.534C1447.02 370.72 1454.31 382.273 1459.52 396.193C1464.73 410.019 1467.33 426.212 1467.33 444.773V461.392H1283.1V423.892H1410.37C1410.37 415.18 1408.48 407.462 1404.69 400.739C1400.9 394.015 1395.65 388.759 1388.92 384.972C1382.29 381.089 1374.58 379.148 1365.77 379.148C1356.58 379.148 1348.44 381.278 1341.34 385.54C1334.33 389.706 1328.84 395.341 1324.86 402.443C1320.88 409.451 1318.85 417.263 1318.75 425.881V461.534C1318.75 472.33 1320.74 481.657 1324.72 489.517C1328.79 497.377 1334.52 503.438 1341.9 507.699C1349.29 511.96 1358.05 514.091 1368.18 514.091C1374.91 514.091 1381.06 513.144 1386.65 511.25C1392.24 509.356 1397.02 506.515 1401 502.727C1404.97 498.939 1408 494.299 1410.09 488.807L1466.05 492.5C1463.21 505.947 1457.39 517.689 1448.58 527.727C1439.87 537.67 1428.6 545.436 1414.77 551.023C1401.04 556.515 1385.18 559.261 1367.19 559.261ZM1506.82 555V336.818H1565.48V374.886H1567.76C1571.73 361.345 1578.41 351.117 1587.79 344.205C1597.16 337.197 1607.96 333.693 1620.17 333.693C1623.2 333.693 1626.47 333.883 1629.97 334.261C1633.48 334.64 1636.55 335.161 1639.21 335.824V389.517C1636.37 388.665 1632.44 387.907 1627.42 387.244C1622.4 386.581 1617.8 386.25 1613.64 386.25C1604.74 386.25 1596.78 388.191 1589.77 392.074C1582.86 395.862 1577.37 401.165 1573.3 407.983C1569.32 414.801 1567.33 422.661 1567.33 431.562V555H1506.82ZM1726.46 559.119C1712.54 559.119 1700.13 556.705 1689.24 551.875C1678.35 546.951 1669.73 539.706 1663.39 530.142C1657.14 520.483 1654.01 508.456 1654.01 494.062C1654.01 481.941 1656.24 471.761 1660.69 463.523C1665.14 455.284 1671.2 448.655 1678.87 443.636C1686.54 438.617 1695.25 434.83 1705.01 432.273C1714.86 429.716 1725.18 427.917 1735.97 426.875C1748.66 425.549 1758.89 424.318 1766.66 423.182C1774.42 421.951 1780.06 420.152 1783.56 417.784C1787.06 415.417 1788.82 411.913 1788.82 407.273V406.42C1788.82 397.424 1785.97 390.464 1780.29 385.54C1774.71 380.616 1766.75 378.153 1756.43 378.153C1745.54 378.153 1736.87 380.568 1730.43 385.398C1724 390.133 1719.73 396.098 1717.65 403.295L1661.68 398.75C1664.53 385.492 1670.11 374.034 1678.45 364.375C1686.78 354.621 1697.53 347.14 1710.69 341.932C1723.95 336.629 1739.29 333.977 1756.71 333.977C1768.83 333.977 1780.43 335.398 1791.51 338.239C1802.69 341.08 1812.58 345.483 1821.2 351.449C1829.91 357.415 1836.78 365.085 1841.8 374.46C1846.82 383.741 1849.33 394.867 1849.33 407.841V555H1791.94V524.744H1790.24C1786.73 531.562 1782.04 537.576 1776.17 542.784C1770.3 547.898 1763.25 551.922 1755.01 554.858C1746.77 557.699 1737.25 559.119 1726.46 559.119ZM1743.79 517.358C1752.69 517.358 1760.55 515.606 1767.37 512.102C1774.18 508.504 1779.54 503.674 1783.42 497.614C1787.3 491.553 1789.24 484.687 1789.24 477.017V453.864C1787.35 455.095 1784.74 456.231 1781.43 457.273C1778.21 458.22 1774.56 459.119 1770.49 459.972C1766.42 460.729 1762.35 461.439 1758.28 462.102C1754.2 462.67 1750.51 463.191 1747.2 463.665C1740.09 464.706 1733.89 466.364 1728.59 468.636C1723.29 470.909 1719.17 473.987 1716.23 477.869C1713.29 481.657 1711.83 486.392 1711.83 492.074C1711.83 500.312 1714.81 506.61 1720.78 510.966C1726.84 515.227 1734.51 517.358 1743.79 517.358ZM1956.78 428.864V555H1896.27V336.818H1953.94V375.312H1956.5C1961.33 362.623 1969.43 352.585 1980.79 345.199C1992.15 337.718 2005.93 333.977 2022.12 333.977C2037.28 333.977 2050.49 337.292 2061.76 343.92C2073.02 350.549 2081.78 360.019 2088.03 372.33C2094.28 384.545 2097.41 399.129 2097.41 416.08V555H2036.9V426.875C2036.99 413.523 2033.58 403.106 2026.67 395.625C2019.76 388.049 2010.24 384.261 1998.12 384.261C1989.98 384.261 1982.78 386.013 1976.53 389.517C1970.37 393.021 1965.54 398.134 1962.04 404.858C1958.63 411.487 1956.88 419.489 1956.78 428.864ZM2207.32 559.119C2193.4 559.119 2180.99 556.705 2170.1 551.875C2159.21 546.951 2150.59 539.706 2144.25 530.142C2138 520.483 2134.87 508.456 2134.87 494.062C2134.87 481.941 2137.1 471.761 2141.55 463.523C2146 455.284 2152.06 448.655 2159.73 443.636C2167.4 438.617 2176.11 434.83 2185.87 432.273C2195.72 429.716 2206.04 427.917 2216.83 426.875C2229.52 425.549 2239.75 424.318 2247.52 423.182C2255.28 421.951 2260.92 420.152 2264.42 417.784C2267.92 415.417 2269.67 411.913 2269.67 407.273V406.42C2269.67 397.424 2266.83 390.464 2261.15 385.54C2255.56 380.616 2247.61 378.153 2237.29 378.153C2226.4 378.153 2217.73 380.568 2211.29 385.398C2204.85 390.133 2200.59 396.098 2198.51 403.295L2142.54 398.75C2145.38 385.492 2150.97 374.034 2159.31 364.375C2167.64 354.621 2178.39 347.14 2191.55 341.932C2204.81 336.629 2220.15 333.977 2237.57 333.977C2249.69 333.977 2261.29 335.398 2272.37 338.239C2283.55 341.08 2293.44 345.483 2302.06 351.449C2310.77 357.415 2317.64 365.085 2322.66 374.46C2327.68 383.741 2330.19 394.867 2330.19 407.841V555H2272.8V524.744H2271.1C2267.59 531.562 2262.9 537.576 2257.03 542.784C2251.16 547.898 2244.11 551.922 2235.87 554.858C2227.63 557.699 2218.11 559.119 2207.32 559.119ZM2224.65 517.358C2233.55 517.358 2241.41 515.606 2248.23 512.102C2255.04 508.504 2260.39 503.674 2264.28 497.614C2268.16 491.553 2270.1 484.687 2270.1 477.017V453.864C2268.21 455.095 2265.6 456.231 2262.29 457.273C2259.07 458.22 2255.42 459.119 2251.35 459.972C2247.28 460.729 2243.21 461.439 2239.13 462.102C2235.06 462.67 2231.37 463.191 2228.06 463.665C2220.95 464.706 2214.75 466.364 2209.45 468.636C2204.14 470.909 2200.03 473.987 2197.09 477.869C2194.15 481.657 2192.69 486.392 2192.69 492.074C2192.69 500.312 2195.67 506.61 2201.63 510.966C2207.7 515.227 2215.37 517.358 2224.65 517.358Z" fill="black"/>
<defs>
<linearGradient id="paint0_linear_0_1" x1="0" y1="0" x2="806" y2="806" gradientUnits="userSpaceOnUse">
<stop stop-color="#763EF0"/>
<stop offset="1" stop-color="#9F7AEA"/>
</linearGradient>
<clipPath id="clip0_0_1">
<rect width="806" height="806" fill="white"/>
</clipPath>
</defs>
</svg>
