<svg width="640" height="256" viewBox="0 0 640 256" fill="none" xmlns="http://www.w3.org/2000/svg">
<g clip-path="url(#clip0_0_1)">
<path d="M208 0H48C21.4903 0 0 21.4903 0 48V208C0 234.51 21.4903 256 48 256H208C234.51 256 256 234.51 256 208V48C256 21.4903 234.51 0 208 0Z" fill="url(#paint0_linear_0_1)"/>
<path d="M127.978 207.992L62.7834 83.0706L53.8838 98.8195L44.9219 81.5539L63.3442 48.9238L127.978 172.765L192.612 48.9238L211.076 81.6059L202.083 98.8195L193.183 83.0706L127.978 207.992Z" fill="white"/>
<path d="M87.0625 48.9238L127.978 127.274L167.803 48.9238H87.0625Z" fill="white"/>
</g>
<path d="M331.682 93.1818L348.557 146.227H349.205L366.114 93.1818H382.477L358.409 163H339.386L315.284 93.1818H331.682ZM408.565 164.023C403.179 164.023 398.543 162.932 394.656 160.75C390.793 158.545 387.815 155.432 385.724 151.409C383.634 147.364 382.588 142.58 382.588 137.057C382.588 131.67 383.634 126.943 385.724 122.875C387.815 118.807 390.759 115.636 394.554 113.364C398.372 111.091 402.849 109.955 407.986 109.955C411.44 109.955 414.656 110.511 417.634 111.625C420.634 112.716 423.247 114.364 425.474 116.568C427.724 118.773 429.474 121.545 430.724 124.886C431.974 128.205 432.599 132.091 432.599 136.545V140.534H388.384V131.534H418.929C418.929 129.443 418.474 127.591 417.565 125.977C416.656 124.364 415.395 123.102 413.781 122.193C412.19 121.261 410.338 120.795 408.224 120.795C406.02 120.795 404.065 121.307 402.361 122.33C400.679 123.33 399.361 124.682 398.406 126.386C397.452 128.068 396.963 129.943 396.94 132.011V140.568C396.94 143.159 397.418 145.398 398.372 147.284C399.349 149.17 400.724 150.625 402.497 151.648C404.27 152.67 406.372 153.182 408.804 153.182C410.418 153.182 411.895 152.955 413.236 152.5C414.577 152.045 415.724 151.364 416.679 150.455C417.634 149.545 418.361 148.432 418.861 147.114L432.293 148C431.611 151.227 430.213 154.045 428.099 156.455C426.009 158.841 423.304 160.705 419.986 162.045C416.69 163.364 412.884 164.023 408.565 164.023ZM442.077 163V110.636H456.156V119.773H456.702C457.656 116.523 459.259 114.068 461.509 112.409C463.759 110.727 466.349 109.886 469.281 109.886C470.009 109.886 470.793 109.932 471.634 110.023C472.474 110.114 473.213 110.239 473.849 110.398V123.284C473.168 123.08 472.224 122.898 471.02 122.739C469.815 122.58 468.713 122.5 467.713 122.5C465.577 122.5 463.668 122.966 461.986 123.898C460.327 124.807 459.009 126.08 458.031 127.716C457.077 129.352 456.599 131.239 456.599 133.375V163H442.077ZM494.79 163.989C491.449 163.989 488.472 163.409 485.858 162.25C483.244 161.068 481.176 159.33 479.653 157.034C478.153 154.716 477.403 151.83 477.403 148.375C477.403 145.466 477.938 143.023 479.006 141.045C480.074 139.068 481.528 137.477 483.369 136.273C485.21 135.068 487.301 134.159 489.642 133.545C492.006 132.932 494.483 132.5 497.074 132.25C500.119 131.932 502.574 131.636 504.438 131.364C506.301 131.068 507.653 130.636 508.494 130.068C509.335 129.5 509.756 128.659 509.756 127.545V127.341C509.756 125.182 509.074 123.511 507.71 122.33C506.369 121.148 504.46 120.557 501.983 120.557C499.369 120.557 497.29 121.136 495.744 122.295C494.199 123.432 493.176 124.864 492.676 126.591L479.244 125.5C479.926 122.318 481.267 119.568 483.267 117.25C485.267 114.909 487.847 113.114 491.006 111.864C494.188 110.591 497.869 109.955 502.051 109.955C504.96 109.955 507.744 110.295 510.403 110.977C513.085 111.659 515.46 112.716 517.528 114.148C519.619 115.58 521.267 117.42 522.472 119.67C523.676 121.898 524.278 124.568 524.278 127.682V163H510.506V155.739H510.097C509.256 157.375 508.131 158.818 506.722 160.068C505.312 161.295 503.619 162.261 501.642 162.966C499.665 163.648 497.381 163.989 494.79 163.989ZM498.949 153.966C501.085 153.966 502.972 153.545 504.608 152.705C506.244 151.841 507.528 150.682 508.46 149.227C509.392 147.773 509.858 146.125 509.858 144.284V138.727C509.403 139.023 508.778 139.295 507.983 139.545C507.21 139.773 506.335 139.989 505.358 140.193C504.381 140.375 503.403 140.545 502.426 140.705C501.449 140.841 500.562 140.966 499.767 141.08C498.063 141.33 496.574 141.727 495.301 142.273C494.028 142.818 493.04 143.557 492.335 144.489C491.631 145.398 491.278 146.534 491.278 147.898C491.278 149.875 491.994 151.386 493.426 152.432C494.881 153.455 496.722 153.966 498.949 153.966ZM550.068 132.727V163H535.545V110.636H549.386V119.875H550C551.159 116.83 553.102 114.42 555.83 112.648C558.557 110.852 561.864 109.955 565.75 109.955C569.386 109.955 572.557 110.75 575.261 112.341C577.966 113.932 580.068 116.205 581.568 119.159C583.068 122.091 583.818 125.591 583.818 129.659V163H569.295V132.25C569.318 129.045 568.5 126.545 566.841 124.75C565.182 122.932 562.898 122.023 559.989 122.023C558.034 122.023 556.307 122.443 554.807 123.284C553.33 124.125 552.17 125.352 551.33 126.966C550.511 128.557 550.091 130.477 550.068 132.727ZM610.196 163.989C606.855 163.989 603.878 163.409 601.264 162.25C598.651 161.068 596.582 159.33 595.06 157.034C593.56 154.716 592.81 151.83 592.81 148.375C592.81 145.466 593.344 143.023 594.412 141.045C595.48 139.068 596.935 137.477 598.776 136.273C600.616 135.068 602.707 134.159 605.048 133.545C607.412 132.932 609.889 132.5 612.48 132.25C615.526 131.932 617.98 131.636 619.844 131.364C621.707 131.068 623.06 130.636 623.901 130.068C624.741 129.5 625.162 128.659 625.162 127.545V127.341C625.162 125.182 624.48 123.511 623.116 122.33C621.776 121.148 619.866 120.557 617.389 120.557C614.776 120.557 612.696 121.136 611.151 122.295C609.605 123.432 608.582 124.864 608.082 126.591L594.651 125.5C595.332 122.318 596.673 119.568 598.673 117.25C600.673 114.909 603.253 113.114 606.412 111.864C609.594 110.591 613.276 109.955 617.457 109.955C620.366 109.955 623.151 110.295 625.81 110.977C628.491 111.659 630.866 112.716 632.935 114.148C635.026 115.58 636.673 117.42 637.878 119.67C639.082 121.898 639.685 124.568 639.685 127.682V163H625.912V155.739H625.503C624.662 157.375 623.537 158.818 622.128 160.068C620.719 161.295 619.026 162.261 617.048 162.966C615.071 163.648 612.787 163.989 610.196 163.989ZM614.355 153.966C616.491 153.966 618.378 153.545 620.014 152.705C621.651 151.841 622.935 150.682 623.866 149.227C624.798 147.773 625.264 146.125 625.264 144.284V138.727C624.81 139.023 624.185 139.295 623.389 139.545C622.616 139.773 621.741 139.989 620.764 140.193C619.787 140.375 618.81 140.545 617.832 140.705C616.855 140.841 615.969 140.966 615.173 141.08C613.469 141.33 611.98 141.727 610.707 142.273C609.435 142.818 608.446 143.557 607.741 144.489C607.037 145.398 606.685 146.534 606.685 147.898C606.685 149.875 607.401 151.386 608.832 152.432C610.287 153.455 612.128 153.966 614.355 153.966Z" fill="#763EF0"/>
<defs>
<linearGradient id="paint0_linear_0_1" x1="0" y1="0" x2="256" y2="256" gradientUnits="userSpaceOnUse">
<stop stop-color="#763EF0"/>
<stop offset="1" stop-color="#9F7AEA"/>
</linearGradient>
<clipPath id="clip0_0_1">
<rect width="256" height="256" fill="white"/>
</clipPath>
</defs>
</svg>
