<svg width="228" height="57" viewBox="0 0 228 57" fill="none" xmlns="http://www.w3.org/2000/svg">
<path d="M0 20C0 8.9543 8.95431 0 20 0H208C219.046 0 228 8.95431 228 20V37C228 48.0457 219.046 57 208 57H20C8.95431 57 0 48.0457 0 37V20Z" fill="#9194B1" fill-opacity="0.2"/>
<path d="M20 0.25H208C218.908 0.250008 227.75 9.09238 227.75 20V37C227.75 47.9076 218.908 56.75 208 56.75H20C9.09238 56.75 0.25 47.9076 0.25 37V20C0.25 9.09238 9.09238 0.25 20 0.25Z" stroke="white" stroke-opacity="0.6" stroke-width="0.5"/>
</svg>
