<svg width="1200" height="630" viewBox="0 0 1200 630" xmlns="http://www.w3.org/2000/svg">
  <defs>
    <linearGradient id="tile" x1="0" y1="0" x2="1" y2="1">
      <stop offset="0%" stop-color="#763EF0"/>
      <stop offset="100%" stop-color="#9F7AEA"/>
    </linearGradient>
    <radialGradient id="glow1" cx="0.2" cy="0.25" r="0.6">
      <stop offset="0%" stop-color="#763EF0" stop-opacity="0.35"/>
      <stop offset="100%" stop-color="#763EF0" stop-opacity="0"/>
    </radialGradient>
    <radialGradient id="glow2" cx="0.85" cy="0.2" r="0.55">
      <stop offset="0%" stop-color="#2E6BE6" stop-opacity="0.28"/>
      <stop offset="100%" stop-color="#2E6BE6" stop-opacity="0"/>
    </radialGradient>
  </defs>

  <rect width="1200" height="630" fill="#0B0B12"/>
  <rect width="1200" height="630" fill="url(#glow1)"/>
  <rect width="1200" height="630" fill="url(#glow2)"/>

  <!-- globe suggestion, right side -->
  <g opacity="0.5">
    <circle cx="985" cy="315" r="240" fill="none" stroke="#763EF0" stroke-opacity="0.35" stroke-width="1.5"/>
    <ellipse cx="985" cy="315" rx="240" ry="80" fill="none" stroke="#763EF0" stroke-opacity="0.22" stroke-width="1.5"/>
    <ellipse cx="985" cy="315" rx="240" ry="170" fill="none" stroke="#763EF0" stroke-opacity="0.16" stroke-width="1.5"/>
    <path d="M 830 200 Q 985 90 1140 210" fill="none" stroke="#29C68C" stroke-width="3" stroke-linecap="round"/>
    <path d="M 800 400 Q 950 520 1120 380" fill="none" stroke="#2E6BE6" stroke-width="2.5" stroke-linecap="round" opacity="0.8"/>
    <circle cx="830" cy="200" r="10" fill="#151824" stroke="#763EF0" stroke-width="3"/>
    <circle cx="1140" cy="210" r="10" fill="#151824" stroke="#29C68C" stroke-width="3"/>
    <circle cx="800" cy="400" r="9" fill="#151824" stroke="#2E6BE6" stroke-width="3"/>
    <circle cx="1120" cy="380" r="9" fill="#151824" stroke="#2E6BE6" stroke-width="3"/>
    <circle cx="985" cy="315" r="7" fill="#763EF0"/>
  </g>

  <!-- logo lockup -->
  <g transform="translate(80, 88)">
    <rect width="76" height="76" rx="16" fill="url(#tile)"/>
    <g transform="translate(14.6 15.6) scale(0.87)">
      <path fill="#FFFFFF" d="M26.9932 51.6972L5.805 11.0977L2.91263 16.2161L0 10.6048L5.98725 0L26.9932 40.2483L47.9993 0L54 10.6217L51.0773 16.2161L48.1849 11.0977L26.9932 51.6972Z"/>
      <path fill="#FFFFFF" d="M13.696 0L26.9935 25.4637L39.9367 0H13.696Z"/>
    </g>
    <text x="96" y="53" font-family="Helvetica, Arial, sans-serif" font-size="44" font-weight="700" letter-spacing="-1" fill="#FFFFFF">Verana</text>
  </g>

  <!-- headline -->
  <text x="80" y="300" font-family="Helvetica, Arial, sans-serif" font-size="64" font-weight="700" letter-spacing="-2" fill="#FFFFFF">The Open Trust</text>
  <text x="80" y="372" font-family="Helvetica, Arial, sans-serif" font-size="64" font-weight="700" letter-spacing="-2" fill="#FFFFFF">Infrastructure for the</text>
  <text x="80" y="444" font-family="Helvetica, Arial, sans-serif" font-size="64" font-weight="700" letter-spacing="-2" fill="#FFFFFF">Verifiable Internet</text>

  <!-- eyebrow + url -->
  <text x="80" y="215" font-family="Courier, monospace" font-size="22" letter-spacing="4" fill="#8B94A5">[ OPEN · PUBLIC · NEUTRAL ]</text>
  <text x="80" y="540" font-family="Courier, monospace" font-size="26" fill="#29C68C">verana.io</text>
</svg>
