<svg width="320" height="132" viewBox="0 0 320 132" fill="none" xmlns="http://www.w3.org/2000/svg">
<rect width="320" height="132" fill="white"/>
<g clip-path="url(#clip0_0_1)">
<path d="M200 2H120C106.745 2 96 12.7452 96 26V106C96 119.255 106.745 130 120 130H200C213.255 130 224 119.255 224 106V26C224 12.7452 213.255 2 200 2Z" fill="url(#paint0_linear_0_1)"/>
<path d="M159.989 105.996L127.392 43.5353L122.942 51.4097L118.461 42.777L127.673 26.4619L159.989 88.3823L192.306 26.4619L201.538 42.803L197.042 51.4097L192.592 43.5353L159.989 105.996Z" fill="white"/>
<path d="M139.532 26.4619L159.99 65.6368L179.902 26.4619H139.532Z" fill="white"/>
</g>
<defs>
<linearGradient id="paint0_linear_0_1" x1="96" y1="2" x2="224" y2="130" gradientUnits="userSpaceOnUse">
<stop stop-color="#763EF0"/>
<stop offset="1" stop-color="#9F7AEA"/>
</linearGradient>
<clipPath id="clip0_0_1">
<rect width="128" height="128" fill="white" transform="translate(96 2)"/>
</clipPath>
</defs>
</svg>
